<?xml version="1.0" encoding="iso-8859-1"?>
<!-- Uploaded to: SVG Repo, www.svgrepo.com, Generator: SVG Repo Mixer Tools -->
<svg height="800px" width="800px" version="1.1" id="Layer_1" xmlns="http://www.w3.org/2000/svg" xmlns:xlink="http://www.w3.org/1999/xlink" 
	 viewBox="0 0 392.471 392.471" xml:space="preserve">
<path style="fill:#194F82;" d="M371.923,152.567c8.986-15.774,9.891-35.168,1.875-52.105c-9.438-19.846-29.996-32.388-51.717-31.806
	c1.293-17.519-5.56-35.297-19.265-47.127c-10.02-8.663-30.772-19.394-58.117-8.727c-5.818-8.016-14.998-12.8-25.794-12.8
	c-8.016,0-16.291,2.844-22.626,8.339c-6.335-5.495-14.61-8.339-22.626-8.339c-10.796,0-20.04,4.784-25.794,12.8
	c-27.281-10.731-48.032,0.065-58.117,8.727c-13.705,11.83-20.558,29.608-19.265,47.127c-21.786-0.517-42.343,11.96-51.717,31.806
	c-8.016,17.002-7.111,36.331,1.875,52.105C5.83,164.591-2.057,183.856,0.464,203.573c2.715,20.816,16.356,37.883,35.103,45.123
	c-4.008,13.899-2.521,28.897,4.461,42.085c7.887,14.933,21.915,25.212,38.012,28.444c0.905,15.709,8.339,30.513,20.622,40.469
	c12.412,10.15,29.026,14.287,44.735,11.378c4.461,13.123,15.968,21.398,30.125,21.398l0,0c8.145,0,16.356-3.038,22.691-8.663
	c6.335,5.56,14.61,8.663,22.691,8.663l0,0c14.222,0,25.665-8.275,30.125-21.398c15.709,2.909,32.323-1.228,44.735-11.378
	c12.283-9.956,19.653-24.824,20.622-40.469c16.097-3.232,30.125-13.511,38.012-28.444c7.046-13.123,8.404-28.186,4.461-42.085
	c18.618-7.24,32.388-24.242,35.103-45.123C394.614,183.856,386.727,164.591,371.923,152.567z M185.353,176.874h-7.952v-17.713
	c0-15.321-12.283-27.733-27.41-27.733c-6.012,0-10.925,4.848-10.925,10.925c0,6.012,4.848,10.925,10.925,10.925
	c3.103,0,5.624,2.651,5.624,5.883v23.596c-15.774,11.895-18.618,30.319-9.826,45.834c2.715,5.236,9.826,6.723,14.998,3.685
	c5.172-3.103,6.788-9.826,3.685-14.998c-4.784-9.18,1.293-18.36,10.15-18.683h10.796v160.323c0,9.18-7.758,11.572-11.83,11.572
	c-3.038,0-8.339-1.099-9.956-8.145c-0.388-1.552,1.422-12.541,1.422-12.541c2.65-9.826,0.129-20.105-6.594-27.604
	c-6.594-7.37-16.356-10.925-26.117-9.438c-5.947,0.905-10.02,6.4-9.18,12.347c0.905,5.947,6.465,10.15,12.347,9.18
	c3.556-0.517,5.883,1.487,6.659,2.392c2.327,2.909,2.327,8.598,0.646,11.83c-11.572,3.62-21.398,0.388-30.384-5.948
	c-8.275-6.723-12.929-17.067-12.606-27.733c8.857-7.24,14.545-17.455,15.968-28.768l11.378-5.301
	c6.982-3.297,15.903-0.646,19.135,7.499c3.232,6.271,8.275,7.499,14.287,5.689c5.56-2.392,8.145-8.727,5.689-14.287
	c-9.956-20.558-29.673-26.182-48.549-18.683l-4.913,2.327c-2.909-7.434-7.887-13.964-14.481-18.941
	c-4.784-3.62-11.636-2.715-15.321,2.133c-3.62,4.784-2.715,11.636,2.133,15.321c11.184,7.822,11.96,26.958,0.646,36.267
	c-11.378-1.099-21.269-7.628-26.634-17.713c-5.624-10.667-5.43-23.337,0.711-33.875l0,0l7.176-12.283
	c9.05-11.83,22.303-13.834,32.84-3.491c4.008,4.461,10.925,4.784,15.386,0.776c4.461-4.008,4.784-10.925,0.776-15.386
	c-5.43-5.947-12.024-10.149-19.459-12.283c2.004-11.378,8.275-21.657,17.713-28.444c4.848-3.556,6.012-10.343,2.457-15.192
	c-3.556-4.848-10.343-6.012-15.192-2.457c-14.998,10.796-24.63,27.41-26.958,45.64c-11.055,2.78-20.493,9.762-26.44,19.911
	l-3.168,5.43c-12.154-4.008-21.269-14.739-22.949-28.057c-1.939-14.61,5.495-28.768,18.36-35.232l20.687-6.723
	c18.166-6.012,28.574-24.76,24.178-43.572c-1.422-5.883-7.24-9.503-13.059-8.145c-5.883,1.422-9.503,7.24-8.145,13.123
	c1.745,7.628-2.521,15.515-9.826,17.907l-14.158,4.655c-5.947-9.891-6.788-22.109-1.681-32.905
	c13.834-25.859,37.56-18.683,41.051-17.455l21.527,19.135c15.192,13.77,38.788,12.994,51.717,1.487
	c4.719-3.685,5.495-10.602,1.745-15.321c-3.685-4.719-10.602-5.495-15.321-1.745c-7.046,5.56-17.002,5.236-23.661-0.711
	L94.202,76.284c-4.913-13.446-1.228-28.962,9.632-38.335c9.18-9.18,26.376-11.636,39.693-2.651
	c3.168,12.024-4.848,21.01-13.899,22.432c-5.947,0.905-10.02,6.465-9.115,12.412c0.84,5.43,5.495,9.244,10.731,9.244
	c0.517,0,1.099,0,1.616-0.129c23.855-4.331,38.012-27.539,31.677-49.713c0,0-1.099-7.499,8.857-7.952
	c4.008-0.129,11.766,2.392,11.766,11.572v143.709H185.353z M370.436,200.793c-1.681,13.382-10.796,24.048-22.949,28.057l-3.168-5.43
	c-5.947-10.15-15.386-17.131-26.44-19.846c-2.327-18.23-12.024-34.909-26.958-45.64c-4.848-3.491-11.636-2.392-15.192,2.457
	c-3.556,4.848-2.392,11.636,2.457,15.192c9.438,6.788,15.709,17.067,17.713,28.444c-7.37,2.133-14.093,6.335-19.459,12.283
	c-4.008,4.461-3.685,11.378,0.776,15.386c4.461,4.008,11.378,3.685,15.386-0.776c10.537-10.343,23.79-8.339,32.84,3.491
	l7.176,12.283l0,0c6.077,10.537,6.335,23.208,0.711,33.875c-5.301,10.15-15.321,16.614-26.634,17.713
	c-11.442-9.374-10.667-28.444,0.646-36.267c4.784-3.62,5.818-10.408,2.133-15.321c-3.62-4.784-10.408-5.818-15.321-2.133
	c-6.594,4.913-11.507,11.507-14.481,18.941l-4.913-2.327c-18.877-7.499-38.529-1.875-48.549,18.683
	c-2.392,5.56,0.259,11.96,5.689,14.287c6.077,1.745,11.055,0.453,14.287-5.689c3.232-8.145,12.218-10.925,19.135-7.499l11.378,5.301
	c1.487,11.313,7.111,21.463,15.968,28.768c0.259,10.667-4.331,21.075-12.606,27.733c-8.986,6.335-18.747,9.568-30.384,5.947
	c-1.745-3.232-1.745-8.857,0.646-11.83c0.776-0.905,3.103-2.909,6.659-2.392c5.947,0.905,11.507-3.232,12.347-9.18
	c0.905-5.947-3.232-11.507-9.18-12.347c-9.762-1.487-19.459,2.069-26.117,9.438c-6.723,7.499-9.18,17.842-6.594,27.604
	c0,0,1.745,10.99,1.422,12.541c-1.616,7.111-6.982,8.145-9.956,8.145c-4.073,0-11.83-2.392-11.83-11.572V198.66h10.796
	c8.727,0.323,14.933,9.503,10.149,18.683c-3.103,5.172-1.487,11.895,3.685,14.998c5.172,3.038,12.283,1.552,14.998-3.685
	c8.857-15.515,5.947-33.939-9.826-45.834v-23.596c0-3.232,2.521-5.883,5.624-5.883c6.012,0,10.925-4.848,10.925-10.925
	c0-6.012-4.848-10.925-10.925-10.925c-15.127,0-27.41,12.412-27.41,27.733v17.519h-7.952V33.294c0-9.18,7.628-11.766,11.766-11.572
	c10.02,0.453,8.857,7.952,8.857,7.952c-6.335,22.109,7.887,45.253,31.677,49.713c0.517,0.065,1.099,0.129,1.616,0.129
	c5.301,0,9.956-3.879,10.731-9.244c0.905-5.947-3.168-11.507-9.115-12.412c-9.051-1.422-17.067-10.343-13.899-22.432
	c13.382-9.115,30.513-6.594,39.693,2.651c10.925,9.374,14.61,24.889,9.632,38.335L276.828,95.29
	c-6.723,5.947-16.614,6.271-23.661,0.711c-4.719-3.814-11.572-2.909-15.321,1.745c-3.685,4.719-2.909,11.572,1.745,15.321
	c12.929,11.507,36.461,12.283,51.717-1.487l21.527-19.135c3.491-1.228,27.281-8.404,41.051,17.455
	c5.107,10.731,4.267,23.014-1.681,32.905l-14.158-4.655c-7.24-2.392-11.572-10.279-9.826-17.907
	c1.422-5.883-2.327-11.766-8.145-13.123c-5.883-1.293-11.766,2.263-13.059,8.145c-4.396,18.877,6.012,37.56,24.178,43.572
	l20.622,6.788C364.941,172.025,372.311,186.054,370.436,200.793z"/>
<path style="fill:#56ACE0;" d="M185.353,176.874V33.294c0-9.18-7.628-11.766-11.766-11.572c-10.02,0.453-8.857,7.952-8.857,7.952
	c6.335,22.109-7.887,45.253-31.677,49.713c-0.517,0.065-1.099,0.129-1.616,0.129c-5.301,0-9.956-3.879-10.731-9.244
	c-0.905-6.012,3.168-11.572,9.115-12.541c9.051-1.422,17.067-10.343,13.899-22.432c-13.382-9.115-30.513-6.594-39.693,2.521
	c-10.925,9.374-14.61,24.889-9.632,38.335l21.269,18.877c6.723,5.947,16.614,6.271,23.661,0.711
	c4.719-3.814,11.572-2.909,15.321,1.745c3.749,4.655,2.909,11.572-1.745,15.321c-12.929,11.507-36.461,12.283-51.717-1.487
	L79.656,92.187c-3.491-1.228-27.281-8.404-41.051,17.455c-5.107,10.731-4.267,23.014,1.681,32.905l14.158-4.655
	c7.24-2.392,11.572-10.279,9.826-17.907c-1.422-5.883,2.327-11.766,8.145-13.059c5.883-1.293,11.766,2.263,13.059,8.145
	c4.396,18.877-6.012,37.56-24.178,43.572l-20.816,6.788c-12.929,6.594-20.299,20.622-18.36,35.232
	c1.681,13.382,10.796,24.048,22.949,28.057l3.168-5.366c5.947-10.15,15.386-17.131,26.44-19.846
	c2.327-18.23,12.024-34.909,26.958-45.64c4.848-3.491,11.636-2.392,15.192,2.457c3.556,4.848,2.392,11.636-2.457,15.192
	c-9.438,6.788-15.709,17.067-17.713,28.444c7.37,2.133,14.093,6.335,19.459,12.283c4.008,4.461,3.685,11.378-0.776,15.386
	c-4.461,4.008-11.378,3.685-15.386-0.776c-10.537-10.343-23.79-8.339-32.84,3.491l-7.176,12.283l0,0
	c-6.077,10.537-6.335,23.208-0.711,33.875c5.301,10.15,15.321,16.614,26.634,17.713c11.442-9.374,10.667-28.444-0.646-36.267
	c-4.784-3.62-5.818-10.408-2.133-15.321c3.62-4.784,10.408-5.818,15.321-2.133c6.594,4.913,11.507,11.507,14.481,18.941l4.913-2.327
	c18.877-7.499,38.529-1.875,48.549,18.683c2.392,5.56-0.259,11.96-5.689,14.287c-6.077,1.745-11.055,0.453-14.287-5.689
	c-3.232-8.145-12.218-10.925-19.135-7.499l-11.378,5.301c-1.487,11.313-7.111,21.463-15.968,28.768
	c-0.259,10.667,4.331,21.075,12.606,27.733c8.986,6.335,18.747,9.568,30.384,5.947c1.745-3.232,1.745-8.857-0.646-11.83
	c-0.776-0.905-3.103-2.909-6.659-2.392c-5.947,0.905-11.507-3.232-12.347-9.18c-0.905-5.947,3.232-11.507,9.18-12.347
	c9.762-1.487,19.459,2.069,26.117,9.438c6.723,7.499,9.18,17.842,6.594,27.604c0,0-1.745,10.99-1.422,12.541
	c1.616,7.111,6.982,8.145,9.956,8.145c4.073,0,11.83-2.392,11.83-11.572V198.66h-10.796c-8.727,0.323-14.933,9.503-10.149,18.683
	c3.103,5.172,1.487,11.895-3.685,14.998c-5.172,3.038-12.283,1.552-14.998-3.685c-8.857-15.515-5.947-33.939,9.826-45.834v-23.596
	c0-3.232-2.521-5.883-5.624-5.883c-6.012,0-10.925-4.848-10.925-10.925c0-6.012,4.848-10.925,10.925-10.925
	c15.127,0,27.41,12.412,27.41,27.733v17.519h7.887V176.874z"/>
<path style="fill:#FFC10D;" d="M290.921,157.868c14.998,10.796,24.63,27.41,26.958,45.64c11.055,2.715,20.493,9.762,26.44,19.846
	l3.168,5.43c12.154-4.008,21.269-14.739,22.949-28.057c1.875-14.61-5.495-28.768-18.36-35.232l-20.622-6.788
	c-18.166-6.012-28.574-24.76-24.178-43.572c1.422-5.883,7.24-9.503,13.059-8.145c5.883,1.422,9.503,7.24,8.145,13.059
	c-1.745,7.628,2.521,15.515,9.826,17.907l14.158,4.655c5.947-9.891,6.788-22.109,1.681-32.905
	c-13.834-25.859-37.56-18.683-41.051-17.455l-21.527,19.135c-15.192,13.77-38.788,12.994-51.717,1.487
	c-4.719-3.685-5.495-10.602-1.745-15.321c3.685-4.719,10.602-5.495,15.321-1.745c7.046,5.56,17.002,5.236,23.661-0.711
	l21.269-18.877c4.913-13.446,1.228-28.962-9.632-38.335c-9.18-9.18-26.376-11.636-39.693-2.521
	c-3.168,12.024,4.848,21.01,13.899,22.432c5.947,0.905,10.02,6.465,9.115,12.412c-0.84,5.43-5.495,9.244-10.731,9.244
	c-0.517,0-1.099,0-1.616-0.129c-23.855-4.331-38.012-27.539-31.677-49.713c0,0,1.099-7.499-8.857-7.952
	c-4.008-0.129-11.766,2.392-11.766,11.572v143.58h7.952v-17.713c0-15.321,12.283-27.733,27.41-27.733
	c6.012,0,10.925,4.848,10.925,10.925c0,6.012-4.848,10.925-10.925,10.925c-3.103,0-5.624,2.651-5.624,5.883v23.596
	c15.774,11.895,18.618,30.319,9.826,45.834c-2.715,5.236-9.826,6.723-14.998,3.685c-5.172-3.103-6.788-9.826-3.685-14.998
	c4.784-9.18-1.293-18.36-10.15-18.683h-10.796v160.323c0,9.18,7.758,11.572,11.83,11.572c3.038,0,8.339-1.099,9.956-8.145
	c0.388-1.552-1.422-12.541-1.422-12.541c-2.651-9.826-0.129-20.105,6.594-27.604c6.594-7.37,16.356-10.925,26.117-9.438
	c5.947,0.905,10.02,6.4,9.18,12.347c-0.905,5.947-6.465,10.15-12.347,9.18c-3.556-0.517-5.883,1.487-6.659,2.392
	c-2.327,2.909-2.327,8.598-0.646,11.83c11.572,3.62,21.398,0.388,30.384-5.947c8.275-6.723,12.929-17.067,12.606-27.733
	c-8.857-7.24-14.545-17.455-15.968-28.768l-11.378-5.301c-6.982-3.297-15.903-0.646-19.135,7.499
	c-3.232,6.271-8.275,7.499-14.287,5.689c-5.56-2.392-8.145-8.727-5.689-14.287c9.956-20.558,29.673-26.182,48.549-18.683
	l4.913,2.327c2.909-7.434,7.887-13.964,14.481-18.941c4.784-3.62,11.636-2.715,15.321,2.133c3.62,4.784,2.715,11.636-2.133,15.321
	c-11.184,7.822-11.96,26.958-0.646,36.267c11.378-1.099,21.269-7.628,26.634-17.713c5.624-10.667,5.43-23.337-0.711-33.875l0,0
	l-7.176-12.283c-9.051-11.83-22.303-13.834-32.84-3.491c-4.008,4.461-10.925,4.784-15.386,0.776
	c-4.461-4.008-4.784-10.925-0.776-15.386c5.43-5.947,12.024-10.149,19.459-12.283c-2.004-11.378-8.275-21.657-17.713-28.444
	c-4.849-3.556-6.012-10.343-2.457-15.192C279.22,155.411,286.008,154.312,290.921,157.868z"/>
</svg>