<?xml version="1.0" encoding="iso-8859-1"?>
<!-- Uploaded to: SVG Repo, www.svgrepo.com, Generator: SVG Repo Mixer Tools -->
<svg version="1.1" id="Layer_1" xmlns="http://www.w3.org/2000/svg" xmlns:xlink="http://www.w3.org/1999/xlink" 
	 viewBox="0 0 512 512" xml:space="preserve">
<polygon style="fill:#EBEBEB;" points="430.518,108.396 430.518,501.16 81.482,501.16 81.482,10.84 332.962,10.84 "/>
<polygon style="fill:#A8A8A8;" points="430.518,108.396 430.518,151.755 289.603,151.755 289.603,10.84 332.962,10.84 "/>
<polygon style="fill:#EBEBEB;" points="430.518,108.396 332.962,108.396 332.962,10.84 "/>
<rect x="130.26" y="195.276" style="fill:#2969B0;" width="105.502" height="51.423"/>
<g>
	<rect x="235.762" y="195.276" style="fill:#FFAC3D;" width="72.983" height="51.423"/>
	<rect x="308.757" y="195.276" style="fill:#FFAC3D;" width="72.983" height="51.423"/>
</g>
<g>
	<rect x="235.762" y="246.7" style="fill:#A8A8A8;" width="72.983" height="51.423"/>
	<rect x="308.757" y="246.7" style="fill:#A8A8A8;" width="72.983" height="51.423"/>
	<rect x="235.762" y="298.123" style="fill:#A8A8A8;" width="72.983" height="51.423"/>
	<rect x="308.757" y="298.123" style="fill:#A8A8A8;" width="72.983" height="51.423"/>
	<rect x="235.762" y="349.535" style="fill:#A8A8A8;" width="72.983" height="51.423"/>
	<rect x="308.757" y="349.535" style="fill:#A8A8A8;" width="72.983" height="51.423"/>
	<rect x="235.762" y="400.959" style="fill:#A8A8A8;" width="72.983" height="51.423"/>
	<rect x="308.757" y="400.959" style="fill:#A8A8A8;" width="72.983" height="51.423"/>
</g>
<g>
	<path style="fill:#231F20;" d="M438.183,100.732L340.626,3.175C338.593,1.142,335.836,0,332.962,0H81.482
		c-5.986,0-10.84,4.853-10.84,10.84V501.16c0,5.987,4.854,10.84,10.84,10.84h349.037c5.986,0,10.84-4.853,10.84-10.84V108.396
		C441.358,105.522,440.215,102.764,438.183,100.732z M343.801,37.01l60.55,60.549l-0.003-0.002h-60.547V37.01z M322.122,21.679
		v86.717c0,5.987,4.854,10.84,10.84,10.84h86.717v21.679H300.443V21.679H322.122z M92.321,490.321V21.679h186.442v130.076
		c0,5.987,4.854,10.84,10.84,10.84h130.076v327.726H92.321z"/>
	<path style="fill:#231F20;" d="M381.74,184.437H130.26c-5.986,0-10.84,4.853-10.84,10.84v257.106c0,5.987,4.854,10.84,10.84,10.84
		h251.48c5.986,0,10.84-4.853,10.84-10.84V195.276C392.58,189.29,387.726,184.437,381.74,184.437z M370.9,287.279h-51.307v-29.742
		H370.9V287.279z M370.9,338.7h-51.307v-29.742H370.9V338.7z M141.1,308.958h83.826V338.7H141.1V308.958z M246.605,308.958h51.308
		V338.7h-51.308V308.958z M297.914,287.279h-51.308v-29.742h51.308V287.279z M224.926,287.279H141.1v-29.742h83.826L224.926,287.279
		L224.926,287.279z M141.1,360.379h83.826v29.742H141.1V360.379z M246.605,360.379h51.308v29.742h-51.308V360.379z M319.593,360.379
		H370.9v29.742h-51.307V360.379z M370.9,235.858h-51.307v-29.742H370.9V235.858z M297.914,235.858h-51.308v-29.742h51.308V235.858z
		 M141.1,206.116h83.826v29.742H141.1V206.116z M141.1,411.8h83.826v29.742H141.1V411.8z M246.605,411.8h51.308v29.742h-51.308
		V411.8z M370.9,441.542h-51.307V411.8H370.9V441.542z"/>
	<path style="fill:#231F20;" d="M135.68,106.933h55.282c5.986,0,10.84-4.853,10.84-10.84c0-5.987-4.854-10.84-10.84-10.84H135.68
		c-5.986,0-10.84,4.853-10.84,10.84C124.84,102.08,129.693,106.933,135.68,106.933z"/>
	<path style="fill:#231F20;" d="M230.527,106.933h2.168c5.986,0,10.84-4.853,10.84-10.84c0-5.987-4.854-10.84-10.84-10.84h-2.168
		c-5.986,0-10.84,4.853-10.84,10.84C219.687,102.08,224.54,106.933,230.527,106.933z"/>
</g>
</svg>