<?xml version="1.0" encoding="iso-8859-1"?>
<!-- Uploaded to: SVG Repo, www.svgrepo.com, Generator: SVG Repo Mixer Tools -->
<svg version="1.1" id="Layer_1" xmlns="http://www.w3.org/2000/svg" xmlns:xlink="http://www.w3.org/1999/xlink" 
	 viewBox="0 0 512 512" xml:space="preserve">
<rect x="10.956" y="313.521" style="fill:#BFDEFF;" width="415.772" height="142.425"/>
<rect x="10.956" y="264.22" style="fill:#A8A8A8;" width="87.646" height="49.301"/>
<g>
	<rect x="147.903" y="94.405" style="fill:#FFAC3D;" width="43.823" height="43.823"/>
	<rect x="147.903" y="182.052" style="fill:#FFAC3D;" width="43.823" height="43.823"/>
</g>
<rect x="333.604" y="116.317" style="fill:#EBEBEB;" width="93.124" height="87.646"/>
<path style="fill:#FFAC3D;" d="M282.869,176.286l50.735,27.673v-87.646l-50.735,27.673c-5.87,3.201-9.522,9.354-9.522,16.04v0.219
	C273.347,166.932,277,173.084,282.869,176.286z"/>
<rect x="377.427" y="203.963" style="fill:#2969B0;" width="49.301" height="109.558"/>
<rect x="199.034" y="264.22" style="fill:#EBEBEB;" width="104.08" height="49.301"/>
<rect x="10.956" y="56.06" style="fill:#2969B0;" width="87.646" height="208.16"/>
<polygon style="fill:#EBEBEB;" points="147.903,225.872 98.602,236.827 98.602,83.446 147.903,94.402 "/>
<g>
	<path style="fill:#231F20;" d="M501.044,101.888h-32.137c-6.05,0-10.956,4.906-10.956,10.956v36.337h-20.268v-32.867
		c0-6.05-4.906-10.956-10.956-10.956h-93.124c-1.901,0-3.689,0.485-5.247,1.338l0,0l-50.734,27.674
		c-6.075,3.313-10.648,8.6-13.132,14.812h-41.723c-6.051,0-10.956,4.906-10.956,10.956s4.905,10.956,10.956,10.956h41.723
		c2.484,6.212,7.057,11.498,13.132,14.812h-0.001l50.735,27.674l0,0c1.558,0.851,3.346,1.338,5.247,1.338h32.867v87.646h-52.405
		v-38.345c0-6.05-4.906-10.956-10.956-10.956H199.03c-6.051,0-10.956,4.906-10.956,10.956v38.345h-78.517v-56.947l39.547-8.788
		h42.621c6.051,0,10.956-4.906,10.956-10.956v-43.823c0-6.05-4.905-10.956-10.956-10.956h-32.867v-21.912h32.867
		c6.051,0,10.956-4.906,10.956-10.956V94.404c0-6.05-4.905-10.956-10.956-10.956h-42.621l-39.547-8.791V56.057
		c0-6.05-4.905-10.956-10.956-10.956H10.956C4.905,45.101,0,50.007,0,56.057v399.886c0,6.05,4.905,10.956,10.956,10.956h415.772
		c6.05,0,10.956-4.906,10.956-10.956v-284.85h20.268v36.337c0,6.05,4.906,10.956,10.956,10.956c6.05,0,10.956-4.906,10.956-10.956
		V123.8h21.181c6.05,0,10.956-4.906,10.956-10.956C512,106.794,507.094,101.888,501.044,101.888z M288.115,166.667
		C288.114,166.667,288.114,166.667,288.115,166.667c-2.352-1.283-3.813-3.742-3.813-6.421v-0.218c0-2.679,1.46-5.138,3.813-6.421
		l34.533-18.836v50.735L288.115,166.667z M344.559,127.27h71.213v65.735h-71.213V127.27z M388.383,214.916h27.389v87.646h-27.389
		V214.916z M209.986,275.173h82.168v27.389h-82.168L209.986,275.173L209.986,275.173z M21.912,275.173h65.735v27.389H21.912V275.173
		z M180.77,193.004v21.912h-21.912v-21.912H180.77z M180.77,127.27h-21.912v-21.912h21.912V127.27z M136.947,103.19v113.893
		l-27.389,6.087V97.103L136.947,103.19z M21.912,67.013h65.735v186.248H21.912V67.013z M21.912,444.987v-65.735h54.414
		c6.051,0,10.956-4.906,10.956-10.956c0-6.05-4.905-10.956-10.956-10.956H21.912v-32.867h393.861v65.735h-55.51
		c-6.05,0-10.956,4.906-10.956,10.956c0,6.05,4.906,10.956,10.956,10.956h55.51v32.867H21.912z"/>
	<path style="fill:#231F20;" d="M121.061,357.341h-1.096c-6.051,0-10.956,4.906-10.956,10.956c0,6.05,4.905,10.956,10.956,10.956
		h1.096c6.051,0,10.956-4.906,10.956-10.956C132.017,362.247,127.112,357.341,121.061,357.341z"/>
	<path style="fill:#231F20;" d="M321.005,390.208h-1.096c-6.05,0-10.956,4.906-10.956,10.956c0,6.05,4.906,10.956,10.956,10.956
		h1.096c6.05,0,10.956-4.906,10.956-10.956C331.96,395.114,327.054,390.208,321.005,390.208z"/>
	<path style="fill:#231F20;" d="M161.598,357.341c-2.881,0-5.708,1.171-7.746,3.21c-2.038,2.038-3.21,4.864-3.21,7.746
		s1.172,5.708,3.21,7.745c2.038,2.038,4.864,3.211,7.746,3.211s5.708-1.172,7.746-3.211c2.038-2.037,3.21-4.863,3.21-7.745
		s-1.172-5.708-3.21-7.746C167.306,358.513,164.479,357.341,161.598,357.341z"/>
</g>
</svg>