<?xml version="1.0" encoding="iso-8859-1"?>
<!-- Uploaded to: SVG Repo, www.svgrepo.com, Generator: SVG Repo Mixer Tools -->
<svg height="800px" width="800px" version="1.1" id="Layer_1" xmlns="http://www.w3.org/2000/svg" xmlns:xlink="http://www.w3.org/1999/xlink" 
	 viewBox="0 0 512.001 512.001" xml:space="preserve">
<path style="fill:#EBEBEB;" d="M499.088,102.573l-11.913-56.263l-40.089,66.548L326.82,45.508l-0.168,0.168
	c-10.8,10.8-17.674,24.907-19.522,40.069l-6.26,51.331c-1.878,15.396-9.3,29.58-20.878,39.899L29.916,399.85
	c-23.838,21.381-24.879,58.377-2.279,81.063l0.841,0.845c22.658,22.746,59.776,21.774,81.214-2.126l225.812-253.597
	c8.45-9.489,19.54-16.238,31.851-19.384l79.712-20.365C484.044,176.839,506.993,139.91,499.088,102.573z"/>
<path style="fill:#FFAC3D;" d="M401.968,87.591l34.294-72.15c0,0-54.17-14.573-87.018,42.625L401.968,87.591z"/>
<g>
	<path style="fill:#231F20;" d="M421.514,137.524l-66.158-37.047c-5.464-3.058-12.374-1.11-15.433,4.354
		c-3.059,5.464-1.11,12.373,4.353,15.433l66.158,37.047c1.753,0.981,3.655,1.447,5.529,1.447c3.971,0,7.826-2.09,9.903-5.801
		C428.927,147.493,426.978,140.584,421.514,137.524z"/>
	<path style="fill:#231F20;" d="M510.18,100.223l-11.913-56.262c-0.965-4.557-4.618-8.06-9.211-8.833
		c-4.593-0.777-9.191,1.34-11.595,5.33l-34.42,57.138l-26.28-14.717l29.741-62.571c1.443-3.039,1.465-6.562,0.056-9.616
		s-4.102-5.326-7.351-6.2c-0.658-0.177-16.328-4.285-36.346-0.308c-16.534,3.285-39.151,12.778-57.418,38.76l-13.085-7.327
		c-4.429-2.483-9.969-1.716-13.558,1.874l-0.168,0.168c-12.532,12.532-20.614,29.122-22.759,46.713l-6.26,51.332
		c-1.545,12.667-7.642,24.317-17.168,32.808L22.345,391.409C8.477,403.847,0.551,420.952,0.028,439.573
		c-0.524,18.621,6.428,36.145,19.575,49.342l0.842,0.846c12.752,12.799,29.582,19.784,47.57,19.784c0.605,0,1.217-0.008,1.824-0.024
		c18.671-0.489,35.822-8.415,48.321-22.349l225.812-253.598c6.973-7.831,16.029-13.344,26.188-15.939l79.712-20.365
		C492.885,186.283,519.376,143.656,510.18,100.223z M419.13,25.073l-22.198,46.702L365.37,54.101
		C383.056,30.3,405.03,25.377,419.13,25.073z M444.261,175.3l-79.712,20.365c-14.552,3.717-27.524,11.611-37.512,22.83
		L101.251,472.062c-8.265,9.214-19.631,14.467-32.005,14.79c-12.382,0.348-24-4.327-32.735-13.095l-0.842-0.846
		c-8.713-8.747-13.32-20.36-12.973-32.701c0.347-12.34,5.599-23.676,14.763-31.894l250.075-222.876
		c13.644-12.161,22.376-28.848,24.589-46.99l6.26-51.332c1.203-9.865,5.016-19.29,10.925-27.22l112.238,62.852
		c5.343,2.995,12.094,1.205,15.253-4.041l25.243-41.903l5.953,28.116C494.663,136.417,475.453,167.331,444.261,175.3z"/>
	<circle style="fill:#231F20;" cx="73.515" cy="437.635" r="11.339"/>
	<path style="fill:#231F20;" d="M154.802,339.049l-61.333,61.333c-4.428,4.428-4.428,11.608,0,16.037
		c2.214,2.213,5.116,3.321,8.018,3.321s5.804-1.108,8.018-3.321l61.333-61.333c4.428-4.428,4.428-11.608,0-16.037
		C166.409,334.622,159.23,334.622,154.802,339.049z"/>
</g>
</svg>