<svg width="610" height="81" viewBox="0 0 610 81" fill="none" xmlns="http://www.w3.org/2000/svg">
<path d="M21.72 5.28399C26.816 5.28399 30.82 5.844 33.732 6.964C36.644 8.028 38.716 9.904 39.948 12.592C41.236 15.224 41.88 18.976 41.88 23.848C41.88 28.72 41.264 32.5 40.032 35.188C38.856 37.876 36.868 39.752 34.068 40.816C31.324 41.88 27.656 42.412 23.064 42.412C20.544 42.412 18.108 42.328 15.756 42.16C13.46 41.992 11.304 41.768 9.288 41.488C7.328 41.208 5.648 40.928 4.248 40.648C2.848 40.312 1.868 40.032 1.308 39.808L1.56 34.18C4.752 34.18 8.028 34.18 11.388 34.18C14.804 34.18 18.192 34.18 21.552 34.18C24.016 34.124 25.948 33.816 27.348 33.256C28.804 32.696 29.812 31.688 30.372 30.232C30.988 28.72 31.296 26.592 31.296 23.848C31.296 21.104 30.988 19.004 30.372 17.548C29.812 16.036 28.804 15 27.348 14.44C25.948 13.824 24.016 13.516 21.552 13.516C16.624 13.516 12.396 13.544 8.868 13.6C5.34 13.656 2.932 13.74 1.644 13.852L0.468001 6.04C2.708 5.816 4.808 5.648 6.768 5.536C8.784 5.424 10.94 5.368 13.236 5.368C15.588 5.312 18.416 5.28399 21.72 5.28399ZM10.968 6.04V64H0.468001V6.04H10.968ZM58.5494 22.756L59.8934 30.82L60.8174 31.996V64H50.6534V22.756H58.5494ZM78.7094 21.748L77.7014 31.156H74.7614C72.5774 31.156 70.3654 31.52 68.1254 32.248C65.8854 32.976 63.0854 34.068 59.7254 35.524L59.0534 29.56C61.9654 27.096 64.9334 25.192 67.9574 23.848C70.9814 22.448 73.8934 21.748 76.6934 21.748H78.7094ZM103.426 21.748C108.466 21.748 112.47 22.448 115.438 23.848C118.462 25.248 120.618 27.544 121.906 30.736C123.25 33.928 123.922 38.156 123.922 43.42C123.922 48.684 123.25 52.912 121.906 56.104C120.618 59.24 118.462 61.536 115.438 62.992C112.47 64.392 108.466 65.092 103.426 65.092C98.4984 65.092 94.5224 64.392 91.4984 62.992C88.5304 61.536 86.3744 59.24 85.0304 56.104C83.6864 52.912 83.0144 48.684 83.0144 43.42C83.0144 38.156 83.6864 33.928 85.0304 30.736C86.3744 27.544 88.5304 25.248 91.4984 23.848C94.5224 22.448 98.4984 21.748 103.426 21.748ZM103.426 29.476C100.962 29.476 99.0024 29.896 97.5464 30.736C96.1464 31.52 95.1384 32.92 94.5224 34.936C93.9064 36.952 93.5984 39.78 93.5984 43.42C93.5984 47.06 93.9064 49.888 94.5224 51.904C95.1384 53.92 96.1464 55.32 97.5464 56.104C99.0024 56.888 100.962 57.28 103.426 57.28C105.946 57.28 107.934 56.888 109.39 56.104C110.846 55.32 111.854 53.92 112.414 51.904C113.03 49.888 113.338 47.06 113.338 43.42C113.338 39.78 113.03 36.952 112.414 34.936C111.854 32.92 110.846 31.52 109.39 30.736C107.934 29.896 105.946 29.476 103.426 29.476ZM151.985 21.748C153.385 21.748 154.925 21.804 156.605 21.916C158.285 22.028 159.993 22.252 161.729 22.588C163.465 22.924 165.033 23.4 166.433 24.016L165.257 30.4C163.185 30.288 161.113 30.204 159.041 30.148C157.025 30.092 155.261 30.064 153.749 30.064C150.893 30.064 148.625 30.456 146.945 31.24C145.321 31.968 144.145 33.312 143.417 35.272C142.689 37.176 142.325 39.864 142.325 43.336C142.325 46.808 142.689 49.524 143.417 51.484C144.145 53.388 145.321 54.732 146.945 55.516C148.625 56.3 150.893 56.692 153.749 56.692C154.589 56.692 155.681 56.664 157.025 56.608C158.425 56.552 159.909 56.468 161.477 56.356C163.101 56.244 164.669 56.104 166.181 55.936L167.189 62.488C165.005 63.384 162.569 64.028 159.881 64.42C157.193 64.812 154.533 65.008 151.901 65.008C146.973 65.008 143.025 64.308 140.057 62.908C137.089 61.508 134.933 59.24 133.589 56.104C132.301 52.912 131.657 48.656 131.657 43.336C131.657 38.016 132.329 33.788 133.673 30.652C135.017 27.46 137.173 25.192 140.141 23.848C143.109 22.448 147.057 21.748 151.985 21.748ZM162.653 1.756L165.593 5.788L153.077 16.624H148.709L136.193 5.788L139.133 1.756L150.557 8.812H151.229L162.653 1.756ZM219.5 21.748C224.596 21.748 228.264 23.624 230.504 27.376C232.744 31.128 233.864 36.56 233.864 43.672C233.864 49.104 233.276 53.388 232.1 56.524C230.98 59.604 229.272 61.816 226.976 63.16C224.68 64.448 221.768 65.092 218.24 65.092C215.44 65.092 212.696 64.7 210.008 63.916C207.376 63.076 204.94 61.788 202.7 60.052L203.372 55.012C205.556 55.628 207.516 56.16 209.252 56.608C210.988 57.056 212.892 57.28 214.964 57.28C217.036 57.28 218.66 56.944 219.836 56.272C221.068 55.544 221.964 54.2 222.524 52.24C223.084 50.28 223.364 47.452 223.364 43.756C223.364 40.116 223.112 37.288 222.608 35.272C222.104 33.256 221.264 31.856 220.088 31.072C218.968 30.232 217.484 29.812 215.636 29.812C213.62 29.812 211.716 30.26 209.924 31.156C208.132 31.996 206.06 33.256 203.708 34.936L202.532 29.56C203.82 28.048 205.36 26.704 207.152 25.528C209 24.352 210.988 23.428 213.116 22.756C215.244 22.084 217.372 21.748 219.5 21.748ZM202.112 22.756L203.12 30.736L204.044 31.912V58.54L203.624 59.548C203.792 61.172 203.904 62.796 203.96 64.42C204.016 66.1 204.044 67.808 204.044 69.544V80.38H193.88V22.756H202.112ZM251.487 22.756L252.831 30.82L253.755 31.996V64H243.591V22.756H251.487ZM271.647 21.748L270.639 31.156H267.699C265.515 31.156 263.303 31.52 261.063 32.248C258.823 32.976 256.023 34.068 252.663 35.524L251.991 29.56C254.903 27.096 257.871 25.192 260.895 23.848C263.919 22.448 266.831 21.748 269.631 21.748H271.647ZM299.12 21.748C302.424 21.748 305.196 22.196 307.436 23.092C309.732 23.932 311.468 25.388 312.644 27.46C313.82 29.532 314.408 32.388 314.408 36.028V64H306.344L304.916 55.096L304.16 53.92V35.944C304.16 33.76 303.656 32.192 302.648 31.24C301.64 30.232 299.708 29.728 296.852 29.728C294.724 29.728 292.036 29.812 288.788 29.98C285.596 30.148 282.376 30.372 279.128 30.652L278.204 23.68C280.164 23.288 282.376 22.952 284.84 22.672C287.304 22.392 289.796 22.168 292.316 22C294.836 21.832 297.104 21.748 299.12 21.748ZM310.04 38.632L309.956 44.932H291.056C289.376 44.988 288.172 45.436 287.444 46.276C286.716 47.116 286.352 48.264 286.352 49.72V51.988C286.352 53.668 286.8 54.956 287.696 55.852C288.592 56.692 289.992 57.112 291.896 57.112C293.408 57.112 295.088 56.804 296.936 56.188C298.784 55.572 300.604 54.676 302.396 53.5C304.244 52.324 305.896 50.924 307.352 49.3V54.592C306.792 55.432 305.98 56.44 304.916 57.616C303.852 58.736 302.536 59.856 300.968 60.976C299.456 62.096 297.692 63.02 295.676 63.748C293.716 64.476 291.532 64.84 289.124 64.84C286.66 64.84 284.448 64.42 282.488 63.58C280.528 62.684 278.988 61.396 277.868 59.716C276.748 57.98 276.188 55.852 276.188 53.332V48.964C276.188 45.716 277.252 43.196 279.38 41.404C281.564 39.556 284.532 38.632 288.284 38.632H310.04ZM305.588 0.663999L310.46 7.888L292.736 17.548L289.628 13.096L305.588 0.663999ZM364.774 22.756L350.578 61.564C350.298 62.292 349.85 62.88 349.234 63.328C348.674 63.776 347.974 64 347.134 64H338.23C337.446 64 336.746 63.776 336.13 63.328C335.514 62.88 335.066 62.292 334.786 61.564L320.59 22.756H331.426L340.078 49.804C340.47 51.036 340.834 52.296 341.17 53.584C341.506 54.816 341.814 56.02 342.094 57.196H343.186C343.578 55.964 343.942 54.732 344.278 53.5C344.67 52.268 345.034 51.036 345.37 49.804L354.022 22.756H364.774ZM389.299 21.748C395.963 21.748 400.751 22.924 403.663 25.276C406.575 27.572 408.059 30.988 408.115 35.524C408.171 39.276 407.275 42.132 405.427 44.092C403.635 45.996 400.639 46.948 396.439 46.948H372.919V40.648H393.667C395.571 40.648 396.775 40.144 397.279 39.136C397.839 38.128 398.119 36.896 398.119 35.44C398.063 33.144 397.391 31.548 396.103 30.652C394.871 29.756 392.743 29.308 389.719 29.308C387.087 29.308 385.043 29.672 383.587 30.4C382.131 31.128 381.095 32.444 380.479 34.348C379.919 36.252 379.639 38.996 379.639 42.58C379.639 46.388 380.003 49.328 380.731 51.4C381.459 53.472 382.663 54.9 384.343 55.684C386.023 56.412 388.263 56.776 391.063 56.776C393.135 56.776 395.515 56.692 398.203 56.524C400.947 56.356 403.579 56.132 406.099 55.852L407.107 62.32C405.595 62.936 403.859 63.44 401.899 63.832C399.939 64.224 397.895 64.504 395.767 64.672C393.695 64.896 391.735 65.008 389.887 65.008C384.847 65.008 380.787 64.28 377.707 62.824C374.683 61.312 372.471 58.96 371.071 55.768C369.727 52.576 369.055 48.46 369.055 43.42C369.055 37.988 369.727 33.704 371.071 30.568C372.471 27.376 374.655 25.108 377.623 23.764C380.647 22.42 384.539 21.748 389.299 21.748ZM401.311 1.756L404.251 5.788L391.735 16.624H387.367L374.851 5.788L377.791 1.756L389.215 8.812H389.887L401.311 1.756ZM462.758 21.748C470.43 21.748 474.266 25.528 474.266 33.088V64H464.102V36.196C464.102 33.956 463.71 32.416 462.926 31.576C462.142 30.736 460.826 30.316 458.978 30.316C456.906 30.316 454.778 30.792 452.594 31.744C450.41 32.64 447.778 33.956 444.698 35.692L444.278 29.56C447.302 27.04 450.382 25.108 453.518 23.764C456.654 22.42 459.734 21.748 462.758 21.748ZM443.942 22.756L444.95 30.82L445.79 31.996V64H435.626V22.756H443.942ZM506.167 21.748C509.471 21.748 512.243 22.196 514.483 23.092C516.779 23.932 518.515 25.388 519.691 27.46C520.867 29.532 521.455 32.388 521.455 36.028V64H513.391L511.963 55.096L511.207 53.92V35.944C511.207 33.76 510.703 32.192 509.695 31.24C508.687 30.232 506.755 29.728 503.899 29.728C501.771 29.728 499.083 29.812 495.835 29.98C492.643 30.148 489.423 30.372 486.175 30.652L485.251 23.68C487.211 23.288 489.423 22.952 491.887 22.672C494.351 22.392 496.843 22.168 499.363 22C501.883 21.832 504.151 21.748 506.167 21.748ZM517.087 38.632L517.003 44.932H498.103C496.423 44.988 495.219 45.436 494.491 46.276C493.763 47.116 493.399 48.264 493.399 49.72V51.988C493.399 53.668 493.847 54.956 494.743 55.852C495.639 56.692 497.039 57.112 498.943 57.112C500.455 57.112 502.135 56.804 503.983 56.188C505.831 55.572 507.651 54.676 509.443 53.5C511.291 52.324 512.943 50.924 514.399 49.3V54.592C513.839 55.432 513.027 56.44 511.963 57.616C510.899 58.736 509.583 59.856 508.015 60.976C506.503 62.096 504.739 63.02 502.723 63.748C500.763 64.476 498.579 64.84 496.171 64.84C493.707 64.84 491.495 64.42 489.535 63.58C487.575 62.684 486.035 61.396 484.915 59.716C483.795 57.98 483.235 55.852 483.235 53.332V48.964C483.235 45.716 484.299 43.196 486.427 41.404C488.611 39.556 491.579 38.632 495.331 38.632H517.087ZM512.635 0.663999L517.507 7.888L499.783 17.548L496.675 13.096L512.635 0.663999ZM547.373 21.748C549.277 21.748 551.321 21.804 553.505 21.916C555.745 22.028 557.929 22.196 560.057 22.42C562.185 22.588 564.089 22.84 565.769 23.176L565.097 29.812C562.409 29.756 559.721 29.7 557.033 29.644C554.401 29.532 551.797 29.476 549.221 29.476C546.925 29.476 545.105 29.532 543.761 29.644C542.473 29.756 541.549 30.092 540.989 30.652C540.485 31.212 540.233 32.164 540.233 33.508C540.233 35.132 540.681 36.224 541.577 36.784C542.473 37.288 543.929 37.792 545.945 38.296L557.201 40.9C560.561 41.74 563.053 43.028 564.677 44.764C566.301 46.444 567.113 49.048 567.113 52.576C567.113 55.992 566.469 58.596 565.181 60.388C563.949 62.124 561.961 63.328 559.217 64C556.529 64.616 553.085 64.924 548.885 64.924C547.261 64.924 544.853 64.84 541.661 64.672C538.469 64.56 534.969 64.196 531.161 63.58L531.833 56.944C532.953 56.944 534.269 56.972 535.781 57.028C537.349 57.084 539.001 57.112 540.737 57.112C542.529 57.112 544.349 57.112 546.197 57.112C549.165 57.112 551.433 57.028 553.001 56.86C554.625 56.636 555.745 56.216 556.361 55.6C556.977 54.928 557.285 53.976 557.285 52.744C557.285 51.176 556.753 50.14 555.689 49.636C554.681 49.076 553.169 48.544 551.153 48.04L540.149 45.352C537.629 44.68 535.669 43.84 534.269 42.832C532.869 41.768 531.861 40.48 531.245 38.968C530.629 37.4 530.321 35.496 530.321 33.256C530.321 30.232 530.881 27.88 532.001 26.2C533.177 24.52 534.997 23.344 537.461 22.672C539.981 22 543.285 21.692 547.373 21.748ZM591.633 4.192C597.513 4.192 601.909 5.256 604.821 7.384C607.733 9.456 609.189 12.732 609.189 17.212C609.189 19.676 608.685 21.832 607.677 23.68C606.725 25.472 605.521 27.124 604.065 28.636C602.609 30.092 601.125 31.604 599.613 33.172C598.157 34.74 596.869 36.532 595.749 38.548C594.685 40.564 594.069 43 593.901 45.856H585.585C585.473 42.888 585.809 40.284 586.593 38.044C587.433 35.804 588.497 33.844 589.785 32.164C591.073 30.484 592.361 28.944 593.649 27.544C594.937 26.144 596.029 24.8 596.925 23.512C597.821 22.168 598.325 20.712 598.437 19.144C598.605 16.848 597.933 15.168 596.421 14.104C594.965 13.04 592.585 12.508 589.281 12.508C586.537 12.508 584.269 12.536 582.477 12.592C580.685 12.648 579.061 12.732 577.605 12.844C576.149 12.9 574.441 12.984 572.481 13.096L572.061 6.124C573.629 5.844 575.029 5.592 576.261 5.368C577.493 5.144 578.781 4.948 580.125 4.78C581.525 4.556 583.121 4.416 584.913 4.36C586.761 4.248 589.001 4.192 591.633 4.192ZM590.961 52.492C592.305 52.492 593.229 52.772 593.733 53.332C594.293 53.836 594.573 54.76 594.573 56.104V60.304C594.573 61.704 594.293 62.684 593.733 63.244C593.229 63.748 592.305 64 590.961 64H588.525C587.181 64 586.229 63.748 585.669 63.244C585.165 62.684 584.913 61.704 584.913 60.304V56.104C584.913 54.76 585.165 53.836 585.669 53.332C586.229 52.772 587.181 52.492 588.525 52.492H590.961Z" fill="#193CB8"/>
</svg>
