<svg xmlns="http://www.w3.org/2000/svg" version="1.1" viewBox="-5.0 -10.0 110.0 135.0">
 <path d="m13.156 26.582h-6.9062c-0.86328 0-1.5625 0.69922-1.5625 1.5625v11.797c0 0.86328 0.69922 1.5625 1.5625 1.5625h6.9062v38.707c0 3.7266 1.4805 7.3047 4.1172 9.9453 2.6406 2.6367 6.2188 4.1172 9.9453 4.1172h45.559c3.7305 0 7.3086-1.4805 9.9453-4.1172 2.6367-2.6406 4.1172-6.2188 4.1172-9.9453v-38.707h6.9102c0.86328 0 1.5625-0.69922 1.5625-1.5625v-11.797c0-0.86328-0.69922-1.5625-1.5625-1.5625h-6.9102v-6.793c0-3.7305-1.4805-7.3047-4.1172-9.9453-2.6367-2.6367-6.2148-4.1172-9.9453-4.1172h-45.559c-7.7656 0-14.062 6.293-14.062 14.062zm70.559-6.793v60.422c0 2.8984-1.1523 5.6836-3.2031 7.7344-2.0508 2.0508-4.832 3.2031-7.7344 3.2031h-45.559c-2.8984 0-5.6797-1.1523-7.7344-3.2031-2.0508-2.0508-3.2031-4.8359-3.2031-7.7344v-60.422c0-6.0391 4.8984-10.938 10.938-10.938h45.559c2.9023 0 5.6836 1.1523 7.7344 3.2031 2.0508 2.0508 3.2031 4.832 3.2031 7.7344zm-5.6289 5.1836c0-1.3789-0.54688-2.6953-1.5195-3.6719-0.97656-0.97266-2.2969-1.5195-3.6758-1.5195h-45.785c-1.3789 0-2.6992 0.54688-3.6758 1.5195-0.96875 0.97656-1.5195 2.293-1.5195 3.6719v24.98c0 1.375 0.55078 2.6992 1.5195 3.6719 0.97656 0.97656 2.2969 1.5234 3.6758 1.5234h45.785c1.3789 0 2.6992-0.54688 3.6758-1.5234 0.97266-0.97266 1.5195-2.2969 1.5195-3.6719zm-3.125 0v24.98c0 0.54688-0.21875 1.0742-0.60547 1.4648-0.38672 0.38672-0.91406 0.60547-1.4648 0.60547h-45.785c-0.55078 0-1.0742-0.21875-1.4609-0.60547-0.39062-0.39062-0.60938-0.91797-0.60938-1.4648v-24.98c0-0.54688 0.21875-1.0742 0.60938-1.4609 0.38672-0.38672 0.91016-0.60547 1.4609-0.60547h45.785c0.55078 0 1.0781 0.21875 1.4648 0.60547s0.60547 0.91406 0.60547 1.4609zm-3.6445 3.1367c0-0.85938-0.69922-1.5625-1.5625-1.5625h-39.512c-0.85938 0-1.5625 0.70312-1.5625 1.5625v18.703c0 0.86328 0.70312 1.5625 1.5625 1.5625h39.512c0.86328 0 1.5625-0.69922 1.5625-1.5625zm-3.125 1.5625v15.578h-36.387v-15.578zm-55.035 0.035156h-5.3438v8.6719h5.3438zm73.684 0v8.6719h5.3477v-8.6719z" fill-rule="evenodd"/>
<text x="0.0" y="117.5" font-size="5.0" font-weight="bold" font-family="Arbeit Regular, Helvetica, Arial-Unicode, Arial, Sans-serif" fill="#000000">Created by rendicon</text><text x="0.0" y="122.5" font-size="5.0" font-weight="bold" font-family="Arbeit Regular, Helvetica, Arial-Unicode, Arial, Sans-serif" fill="#000000">from Noun Project</text></svg>