<svg xmlns="http://www.w3.org/2000/svg" xmlns:xlink="http://www.w3.org/1999/xlink" version="1.1" x="0px" y="0px" viewBox="0 0 24 30" style="enable-background:new 0 0 24 24;" xml:space="preserve"><g><path d="M8.896,11.228h6.209c0.439,0,0.798-0.357,0.798-0.797V7.12c0-0.44-0.358-0.797-0.798-0.797H8.896   c-0.439,0-0.798,0.357-0.798,0.797v3.31C8.099,10.87,8.457,11.228,8.896,11.228z M15.103,7.123l0.003,3.305L8.899,10.43   L8.896,7.123H15.103z"/><path d="M11.061,9.519c0.103,0,0.205-0.039,0.283-0.117l1.17-1.169c0.156-0.156,0.156-0.409,0-0.565s-0.41-0.156-0.566,0   l-1.17,1.169c-0.156,0.156-0.156,0.409,0,0.565C10.855,9.479,10.958,9.519,11.061,9.519z"/><path d="M12.349,9.402c0.078,0.078,0.181,0.117,0.283,0.117s0.205-0.039,0.283-0.117l0.695-0.695c0.156-0.156,0.156-0.409,0-0.565   s-0.41-0.156-0.566,0l-0.695,0.695C12.192,8.993,12.192,9.246,12.349,9.402z"/><path d="M22.79,17.769c-0.021-0.097-0.077-0.183-0.157-0.241l-5.256-3.767c0.19-0.739,0.282-1.478,0.334-2.148   c0.081-0.979,0.12-1.571,0.13-1.938h0.434c0.221,0,0.426-0.088,0.562-0.233c0.162-0.153,0.252-0.359,0.252-0.581V7.051   c0-0.267-0.132-0.512-0.354-0.661c-0.139-0.103-0.301-0.156-0.471-0.156h-0.531c-0.142-0.571-0.323-0.943-0.37-1.027   c-0.303-0.745-0.93-1.509-0.949-1.533c-0.087-0.112-0.18-0.199-0.271-0.293c0-0.052-0.011-0.105-0.033-0.155   c-0.766-1.762-2.328-2.856-4.078-2.856c-1.765,0-3.365,1.152-4.108,2.938C7.812,3.418,7.7,3.529,7.594,3.665   c-0.026,0.032-0.655,0.798-0.94,1.506C6.594,5.285,6.41,5.662,6.268,6.233H5.736c-0.174,0-0.342,0.057-0.457,0.147   c-0.23,0.147-0.368,0.398-0.368,0.67V8.86c0,0.223,0.091,0.43,0.237,0.565c0.15,0.158,0.36,0.249,0.577,0.249H6.16   c0.013,0.365,0.054,0.955,0.129,1.937c0.053,0.671,0.145,1.41,0.335,2.15l-5.257,3.768c-0.08,0.058-0.137,0.144-0.157,0.241   l-1.157,5.378c-0.025,0.118,0.004,0.241,0.079,0.335c0.076,0.095,0.19,0.149,0.312,0.149h23.113c0.121,0,0.235-0.055,0.312-0.149   c0.075-0.094,0.104-0.217,0.079-0.335L22.79,17.769z M18.261,7.033c0.009,0.007,0.018,0.011,0.027,0.018l-0.014,1.823h-0.438   l-0.018-1.841l0.44,0 M6.165,8.867L5.712,8.86l0.024-1.827h0.449L6.165,8.867z M12.032,1.168c1.012,0,1.947,0.465,2.634,1.255   c-0.55-0.182-0.962-0.169-0.984-0.166l-1.682,0l-1.662,0.001c-0.03-0.002-0.404-0.013-0.907,0.136   C10.117,1.628,11.042,1.168,12.032,1.168z M6.961,9.278L6.99,6.677c0.127-0.642,0.332-1.057,0.389-1.17   c0.255-0.631,0.826-1.326,0.839-1.342c0.893-1.143,2.039-1.108,2.101-1.109l3.382,0c0.042-0.001,1.191-0.03,2.09,1.118   c0.006,0.007,0.575,0.701,0.849,1.369c0.042,0.078,0.249,0.497,0.376,1.147l0.026,2.588c0,0.014,0.007,0.027,0.009,0.041l-0.004,0   c0.01,0.202-0.114,2.025-0.131,2.229c-0.123,1.563-0.451,3.522-1.919,4.807c-0.5,0.438-1.096,0.751-1.723,0.906   c-0.417,0.103-0.852,0.106-1.276,0.104c-0.412,0.001-0.851-0.001-1.268-0.104c-0.627-0.155-1.223-0.468-1.723-0.906   c-1.467-1.284-1.796-3.244-1.92-4.806c-0.024-0.329-0.14-2.04-0.131-2.23l-0.003,0C6.954,9.305,6.961,9.293,6.961,9.278z    M0.938,22.831l1.021-4.743l4.92-3.526c0.323,0.87,0.815,1.707,1.6,2.394c0.597,0.522,1.309,0.896,2.059,1.081   c0.443,0.11,0.895,0.128,1.292,0.128c0.114,0,0.223,0,0.337,0c0.402,0,0.854-0.018,1.298-0.128c0.75-0.185,1.462-0.559,2.059-1.081   c0.785-0.687,1.276-1.524,1.6-2.393l4.919,3.525l1.021,4.743H0.938z"/></g><text x="0" y="39" fill="#000000" font-size="5px" font-weight="bold" font-family="'Helvetica Neue', Helvetica, Arial-Unicode, Arial, Sans-serif">Created by Atif Arshad</text><text x="0" y="44" fill="#000000" font-size="5px" font-weight="bold" font-family="'Helvetica Neue', Helvetica, Arial-Unicode, Arial, Sans-serif">from the Noun Project</text></svg>