<?xml version='1.0' encoding='iso-8859-1'?>
<!DOCTYPE svg PUBLIC '-//W3C//DTD SVG 1.1//EN' 'http://www.w3.org/Graphics/SVG/1.1/DTD/svg11.dtd'>
<!-- Uploaded to: SVG Repo, www.svgrepo.com, Generator: SVG Repo Mixer Tools -->
<svg fill="#000000" height="800px" width="800px" version="1.1" xmlns="http://www.w3.org/2000/svg" viewBox="0 0 513.688 513.688" xmlns:xlink="http://www.w3.org/1999/xlink" enable-background="new 0 0 513.688 513.688">
  <g>
    <path d="m449.688,144.633h-7.847c-22.85-87-95.692-144.633-184.997-144.633-89.313,0-162.147,57.633-184.989,144.633h-7.855c-8.875,0-16.156,6.281-16.156,15.156v96.422c0,8.875 7.281,16.422 16.156,16.422h6.419c22.238,118 97.411,241.055 186.425,241.055s164.187-123.055 186.425-241.055h6.419c8.875,0 16.156-7.547 16.156-16.422v-96.422c0-8.875-7.281-15.156-16.156-15.156zm-16.844,96h-3.134c-7.933,0-14.681,5.545-15.882,13.384-16.518,107.572-85.044,227.302-156.984,227.302-71.932,0-140.466-119.668-156.984-227.24-1.201-7.839-7.949-13.445-15.882-13.445h-3.134v-64h3.793c7.666,0 14.266-5.801 15.764-13.318 15.93-80.008 77.339-131.896 156.443-131.896s140.513,51.985 156.45,131.992c1.499,7.517 8.098,13.222 15.764,13.222h3.785v63.999z"/>
    <path d="m144.844,272.633h224v-128h-224v128zm208.424-112l-64.281,96h-32.141l64.281-96h32.141zm-96.422-0h32.141l-64.281,96h-32.141l64.281-96z"/>
  </g>
</svg>